<?xml version="1.0" encoding="UTF-8" standalone="no"?>
<!-- Created with Inkscape (http://www.inkscape.org/) -->

<svg
   width="265.12259mm"
   height="264.86255mm"
   viewBox="0 0 265.12259 264.86255"
   version="1.1"
   id="svg120"
   inkscape:version="1.1.2 (b8e25be833, 2022-02-05)"
   sodipodi:docname="logo-dark-crop.svg"
   xmlns:inkscape="http://www.inkscape.org/namespaces/inkscape"
   xmlns:sodipodi="http://sodipodi.sourceforge.net/DTD/sodipodi-0.dtd"
   xmlns="http://www.w3.org/2000/svg"
   xmlns:svg="http://www.w3.org/2000/svg">
  <sodipodi:namedview
     id="namedview122"
     pagecolor="#ffffff"
     bordercolor="#666666"
     borderopacity="1.0"
     inkscape:pageshadow="2"
     inkscape:pageopacity="0.0"
     inkscape:pagecheckerboard="0"
     inkscape:document-units="mm"
     showgrid="false"
     fit-margin-top="0"
     fit-margin-left="0"
     fit-margin-right="0"
     fit-margin-bottom="0"
     inkscape:zoom="0.64052329"
     inkscape:cx="506.61702"
     inkscape:cy="621.36695"
     inkscape:window-width="2560"
     inkscape:window-height="1506"
     inkscape:window-x="-11"
     inkscape:window-y="-11"
     inkscape:window-maximized="1"
     inkscape:current-layer="layer1" />
  <defs
     id="defs117" />
  <g
     inkscape:label="Layer 1"
     inkscape:groupmode="layer"
     id="layer1"
     transform="translate(28.8798,15.944491)">
    <path
       id="Selection"
       fill="none"
       stroke="#000000"
       stroke-width="0.352778"
       d="m 95.533223,-15.768102 c 0,0 13.758357,0 13.758357,0 0,0 3.52779,0.246945 3.52779,0.246945 9.76843,0.67028 19.1594,2.367144 28.57506,5.072955 14.55211,4.1839527 30.8152,12.3260801 42.68619,21.699404 11.56761,9.136963 21.47363,19.092372 29.60517,31.467841 24.56397,37.383935 29.49581,84.275247 11.871,125.589137 -6.12424,14.36161 -13.15511,24.89911 -23.3363,36.68896 -9.1158,10.55866 -22.77185,21.10674 -35.07324,27.76014 -15.82917,8.56194 -31.88411,13.42675 -49.74176,15.33528 0,0 -8.46668,0.64912 -8.46668,0.64912 0,0 -11.288916,0 -11.288916,0 0,0 -3.527785,-0.32103 -3.527785,-0.32103 -9.764908,-0.67028 -19.162927,-2.49062 -28.575057,-5.17526 C 54.459225,240.08096 42.04495,234.32362 32.385875,228.04769 16.588455,217.78536 3.8284571,205.54395 -6.6490638,189.82767 -31.082501,153.17398 -35.601594,105.12203 -18.262531,64.591308 -4.0526142,31.370159 23.428829,4.7565504 57.433147,-7.710641 c 8.195044,-3.005673 16.767561,-5.291677 25.400051,-6.62518 0,0 8.819462,-1.093613 8.819462,-1.093613 0,0 3.880563,-0.338668 3.880563,-0.338668 z m -0.352779,8.4419895 c 0,0 -10.230575,1.164169 -10.230575,1.164169 -9.743742,1.5663364 -18.69726,4.0393136 -27.8695,7.6764597 C 25.5455,14.016986 -0.31316227,40.662344 -12.268825,72.352435 c -4.095758,10.862049 -6.776875,22.285017 -7.588265,33.866735 0,0 -0.321028,4.23334 -0.321028,4.23334 0,0 0,12.34725 0,12.34725 0,0 0.321028,3.88056 0.321028,3.88056 0.553862,7.91282 1.989671,15.63867 4.116925,23.28338 7.3272088,26.36314 23.6008801,50.02399 45.656591,66.26944 10.421076,7.67646 21.939293,13.71603 34.219512,17.80826 9.366269,3.12209 19.07826,5.22465 28.927836,5.91256 0,0 3.527784,0.32103 3.527784,0.32103 0,0 7.408352,0.23989 7.408352,0.23989 0,0 2.82222,-0.23989 2.82222,-0.23989 20.10132,-0.23283 39.15489,-5.73618 56.79734,-15.27883 11.88863,-6.42763 24.3523,-16.49945 33.16118,-26.70181 7.20021,-8.34321 13.63488,-17.56131 18.42209,-27.51672 C 232.29486,135.21756 231.7163,94.009506 213.62229,58.946853 206.94419,45.999883 198.09651,35.123722 187.60841,25.09423 178.18569,16.084267 165.95486,8.4501411 154.09445,3.1020194 141.59198,-2.5389085 127.91123,-6.0984434 114.23048,-7.0544731 c 0,0 -4.23334,-0.2716394 -4.23334,-0.2716394 0,0 -14.816696,0 -14.816696,0 z m 1.058336,1.0830299 c 0,0 11.64169,0 11.64169,0 0,0 4.23334,0.246945 4.23334,0.246945 10.07183,0.6914458 20.03076,2.4765049 29.63339,5.67620572 16.28426,5.42573298 31.33732,13.92063888 44.09731,25.46002288 10.1565,9.186352 19.11001,20.337679 25.64347,32.395648 24.9485,46.023481 18.42562,103.148901 -17.14856,141.816951 -9.0276,9.8143 -19.60037,18.49265 -31.42551,24.7721 -14.2593,7.57063 -27.35091,12.04033 -43.39175,14.13231 0,0 -7.05557,0.66675 -7.05557,0.66675 0,0 -3.17501,0.29281 -3.17501,0.29281 0,0 -10.936129,0 -10.936129,0 0,0 -3.527785,-0.32103 -3.527785,-0.32103 -10.227048,-0.70203 -20.249485,-2.66701 -29.986171,-5.91257 -14.36514,-4.7872 -28.2505,-12.40369 -39.863968,-22.1439 C 13.289976,201.03544 3.0770389,188.80461 -4.1937256,175.36375 -22.397095,141.70868 -24.171571,101.35788 -8.5858176,66.355201 5.7687387,34.111248 33.130238,10.072922 66.605388,-0.76443276 73.241151,-2.9093259 81.891279,-4.6485238 88.830432,-5.5128311 c 0,0 7.408348,-0.7302515 7.408348,-0.7302515 z m 1.058335,2.4447549 c 0,0 -4.233341,0.3633618 -4.233341,0.3633618 0,0 -6.350013,0.7443626 -6.350013,0.7443626 C 80.903499,-1.907435 72.884845,-0.09768144 67.310945,1.7050166 35.250436,12.083759 8.4992442,35.286 -5.6048395,66.002422 -22.305373,102.36683 -20.079341,145.50811 1.1367573,179.59709 c 8.0997939,13.00695 18.2880367,24.15827 30.5435607,33.34815 10.325826,7.73996 21.635904,13.6102 33.866734,17.68832 9.676714,3.22439 19.4769,5.09412 29.633392,5.79262 0,0 3.527785,0.32103 3.527785,0.32103 0,0 8.819461,0 8.819461,0 0,0 4.23334,-0.32103 4.23334,-0.32103 16.72876,-1.14653 31.56662,-5.3199 46.56676,-12.81997 13.04575,-6.52288 22.20741,-13.9912 32.45562,-24.25352 8.31499,-8.3291 15.29648,-18.77487 20.54935,-29.28062 18.87718,-37.7614 16.48181,-82.51841 -6.10307,-118.180787 C 198.5904,41.410235 190.04611,31.786438 180.55284,23.824227 168.93584,14.076958 155.39268,6.813249 141.04165,2.0331006 131.5131,-1.1419057 121.75172,-2.842298 111.76103,-3.5266883 c 0,0 -3.88056,-0.2716394 -3.88056,-0.2716394 0,0 -10.583355,0 -10.583355,0 z m -1.058335,1.0830299 c 0,0 11.64169,0 11.64169,0 0,0 4.23334,0.246945 4.23334,0.246945 8.68541,0.5961956 17.01451,2.07786522 25.40005,4.4697033 12.01564,3.4290068 24.34172,9.4791575 34.57229,16.6299775 10.58336,7.397765 19.95315,16.510033 27.61197,26.909943 26.40547,35.870515 30.4977,83.001719 11.43356,123.119689 -4.63904,9.76138 -11.04903,19.0959 -18.21396,27.16394 -8.7736,9.8778 -19.4134,18.63729 -31.06214,24.93791 -15.48698,8.37849 -31.43609,13.395 -49.03621,14.60503 0,0 -3.52779,0.32103 -3.52779,0.32103 0,0 -10.936129,0 -10.936129,0 0,0 -3.527785,-0.32103 -3.527785,-0.32103 -9.711992,-0.66675 -19.321677,-2.4765 -28.575057,-5.55979 -16.464172,-5.48217 -31.009228,-14.03352 -43.744531,-25.83749 0,0 -3.524257,-3.20676 -3.524257,-3.20676 -14.9225301,-15.11656 -25.9292187,-34.41001 -31.08684,-55.03344 -1.679226,-6.72043 -3.478396,-17.84001 -3.488979,-24.69449 0,0 0,-9.17225 0,-9.17225 0,0 0.321028,-4.23334 0.321028,-4.23334 0.878419,-12.781161 3.771202,-25.576437 8.805351,-37.394516 C 6.304962,40.260177 30.925372,15.907878 61.666489,4.6366058 c 7.891654,-2.8927836 16.030254,-4.98475996 24.341715,-6.2159569 0,0 6.350013,-0.7972793 6.350013,-0.7972793 0,0 3.880563,-0.3386674 3.880563,-0.3386674 z M 77.188742,117.1553 c 0,0 -7.83521,-9.8778 -7.83521,-9.8778 0,0 -17.282618,-21.872261 -17.282618,-21.872261 0,0 -5.009454,-6.350013 -5.009454,-6.350013 0,0 -2.836339,-3.178534 -2.836339,-3.178534 0,0 -2.667005,-0.349251 -2.667005,-0.349251 0,0 -15.169475,0 -15.169475,0 0,0 0,83.608499 0,83.608499 0,0 22.930601,0 22.930601,0 0,0 0,-27.16394 0,-27.16394 0,-2.96334 -0.321028,-11.03491 0.352779,-13.40558 0,0 8.731267,11.28891 8.731267,11.28891 0,0 16.245449,20.10837 16.245449,20.10837 0,0 4.861287,5.99723 4.861287,5.99723 0,0 2.649367,2.81518 2.649367,2.81518 0,0 2.790478,0.35983 2.790478,0.35983 0,0 15.522251,0 15.522251,0 0,0 0,-83.608499 0,-83.608499 0,0 -20.108372,0 -20.108372,0 -3.048006,0.0071 -3.16795,0.127001 -3.175006,3.175007 0,0 0,38.452852 0,38.452852 z m 93.133518,-1.05833 c 14.83434,-6.43468 14.97897,-29.502868 1.76389,-37.726134 -5.11176,-3.178534 -10.11416,-2.843395 -15.87503,-2.843395 0,0 -21.51949,0 -21.51949,0 0,0 -17.9917,0 -17.9917,0 -2.64231,0.04939 -2.46592,0.79728 -2.46945,3.175007 0,0 0,61.736232 0,61.736232 0,0 0,16.22781 0,16.22781 0.0494,2.64231 0.79728,2.46592 3.17501,2.46945 0,0 36.33618,0 36.33618,0 0,0 3.88057,-0.36689 3.88057,-0.36689 0,0 3.52778,0 3.52778,0 4.0887,-0.43744 9.37685,-1.6757 13.0528,-3.50309 4.03226,-2.00378 7.20374,-4.75898 9.23927,-8.83004 1.09009,-2.18018 1.66864,-4.6214 1.69687,-7.05557 0.0741,-6.49466 -0.0176,-10.77033 -4.19807,-16.22781 -2.97745,-3.88762 -6.44526,-5.11529 -10.61863,-7.05557 z m -32.8084,-20.813934 c 0,0 14.11114,0 14.11114,0 2.03906,0.0035 4.00404,0.0071 5.60565,1.488725 2.56117,2.3742 2.42359,8.198569 -0.67381,10.071829 -1.38289,0.83961 -4.01814,1.1183 -5.6374,1.13947 0,0 -13.40558,0 -13.40558,0 0,0 0,-12.700024 0,-12.700024 z m 0,30.691724 c 0,0 17.28615,0 17.28615,0 1.83092,0.004 3.38667,-0.0318 4.86481,1.2559 2.6917,2.34244 3.4149,8.8371 -0.64558,11.25716 -2.02142,1.20297 -4.7484,0.89253 -7.04146,0.89253 0,0 -14.46392,0 -14.46392,0 0,0 0,-13.40559 0,-13.40559 z" />
    <path
       style="fill:#000000;stroke-width:0.345297"
       d="M 96.050596,235.16818 C 78.658629,233.65312 65.443588,230.13715 51.507278,223.31707 39.061781,217.22657 29.036094,210.02004 18.86182,199.85133 13.441576,194.43404 9.4466089,189.53928 4.9015621,182.74679 -12.260538,157.09832 -18.671617,127.04607 -13.550919,96.249871 -6.8874774,56.175519 21.312854,21.115441 58.941882,6.1231524 68.71247,2.230322 78.047513,-0.1214243 90.698493,-1.8771808 c 4.259006,-0.5910818 19.210317,-0.5849276 24.688737,0.01016 18.5044,2.01003166 34.49475,7.3179887 49.74658,16.5132618 21.50094,12.962848 38.44787,32.540805 48.08767,55.553356 4.3841,10.46594 6.90714,19.933038 8.55295,32.092973 0.76658,5.66372 0.87625,20.85279 0.1932,26.76052 -3.32245,28.73663 -15.51697,53.60268 -35.94656,73.29924 -16.83715,16.23304 -38.97311,27.40822 -62.00141,31.301 -8.48021,1.43352 -21.07312,2.11556 -27.969064,1.51485 z m -46.442452,-95.3905 c 0,-10.81386 0.119017,-19.73511 0.264483,-19.82501 0.145465,-0.0899 1.961975,2.03745 4.036689,4.72745 4.707755,6.10391 24.555175,30.69359 26.579684,32.93052 l 1.49869,1.65594 9.36221,0.10693 9.36221,0.10691 V 117.33359 75.186752 H 89.341969 c -9.876094,0 -11.441438,0.0713 -11.912748,0.54261 -0.480557,0.480557 -0.543488,2.820268 -0.550291,20.45885 C 76.87163,115.11796 76.8417,116.06735 76.274662,115.35542 75.946536,114.94345 69.123562,106.31966 61.1125,96.191432 53.101435,86.063209 45.984286,77.232637 45.29661,76.56794 L 44.046287,75.3594 35.087115,75.251855 26.127945,75.14431 v 42.14746 42.14746 h 11.740099 11.7401 z M 159.23995,159.1054 c 13.56127,-0.8148 22.61714,-6.08979 25.42082,-14.80747 0.9448,-2.93767 1.02788,-10.2927 0.15819,-14.00072 -1.29275,-5.51179 -5.05031,-10.07433 -10.47556,-12.71981 l -3.19731,-1.55907 1.12464,-0.46585 c 1.95503,-0.8098 5.90669,-5.04327 7.303,-7.82379 2.78466,-5.54522 3.22194,-12.082977 1.23783,-18.506766 -1.39547,-4.517986 -5.38311,-9.502098 -9.23285,-11.540038 -4.54533,-2.406174 -3.0906,-2.293067 -31.05646,-2.414598 -25.06646,-0.108931 -25.28427,-0.103936 -25.9836,0.5954 -0.70216,0.702154 -0.70525,0.883925 -0.70525,41.373472 0,36.24906 0.0584,40.75161 0.53752,41.43565 l 0.53753,0.76742 19.57602,-0.0113 c 10.76682,-0.006 21.90679,-0.15136 24.75548,-0.32252 z"
       id="path194" />
    <path
       style="fill:#000000;stroke-width:0.345297"
       d="m 138.00419,101.61158 v -6.096767 l 8.37345,0.108556 c 9.3869,0.121695 10.04065,0.276222 11.46716,2.710503 1.00518,1.715348 0.96655,4.911008 -0.0798,6.597988 -1.43598,2.31515 -2.30922,2.51563 -11.55999,2.6539 l -8.2008,0.12258 z"
       id="path233" />
    <path
       style="fill:#000000;stroke-width:0.345297"
       d="m 138.00419,132.69843 v -6.40772 h 9.50676 c 10.7521,0 11.26981,0.0959 12.77267,2.36689 2.04566,3.0912 1.31448,7.69655 -1.49979,9.44652 -1.23335,0.76692 -1.55456,0.79303 -11.025,0.89598 l -9.75464,0.10605 z"
       id="path272" />
    <path
       style="fill:#000000;stroke-width:0.212815"
       d="M 93.941129,238.55924 C 80.420965,237.30503 70.130119,234.89926 58.353565,230.23965 37.141938,221.84691 19.074579,207.9592 5.1498021,189.34393 -13.772819,164.0473 -22.236081,130.55601 -17.659318,99.082418 -11.464705,56.483168 15.803454,20.929548 55.42168,3.7956763 c 11.647556,-5.0372723 22.830319,-7.900781 36.391302,-9.3185217 4.046884,-0.4230819 5.233133,-0.4565861 12.556068,-0.3546289 7.83068,0.1090268 9.68186,0.2192046 15.10983,0.8993028 22.80377,2.8571904 44.76976,12.4427005 62.67398,27.3496455 19.67641,16.382434 33.74673,38.657789 40.12044,63.516438 2.73563,10.669407 3.80098,19.249188 3.80521,30.645308 0.004,11.45374 -0.99012,19.54861 -3.73568,30.41025 -6.57169,25.99815 -21.64834,49.05497 -43.27112,66.17468 -12.62819,9.99831 -29.04008,18.04164 -45.01502,22.06149 -6.81426,1.71471 -11.57945,2.50668 -19.79176,3.28932 -6.95515,0.66284 -13.82292,0.69334 -20.323801,0.0903 z m 17.027291,-1.78523 c 18.48751,-1.4579 32.01796,-5.16723 47.77882,-13.09833 10.84718,-5.45848 18.40757,-10.91133 28.93036,-20.86567 10.12913,-9.58197 17.44784,-19.6442 24.18551,-33.25172 6.65274,-13.43611 10.53224,-27.43989 12.03659,-43.44841 0.34565,-3.67816 0.34485,-15.3641 -0.003,-19.25973 C 221.82528,83.534139 213.79129,62.253514 200.236,44.176241 196.63457,39.373369 193.69939,36.018497 188.86532,31.179773 183.9941,26.302989 180.73216,23.42274 176.18442,19.981937 162.25882,9.445893 144.46475,1.4876048 127.56531,-1.7626797 c -8.9032,-1.7123595 -13.97069,-2.1549677 -24.6865,-2.1561901 -7.86469,-7.937e-4 -9.113764,0.04781 -12.662467,0.4937734 C 74.877286,-1.4974481 62.883411,2.0630498 49.994377,8.5151894 28.787182,19.131326 11.42923,35.289062 -0.43262573,55.455418 -2.692088,59.296737 -6.4376169,66.917178 -8.0686885,70.991323 c -4.2753385,10.679088 -6.8911895,21.247729 -8.2433555,33.305057 -0.465156,4.14782 -0.652743,16.48424 -0.317389,20.87295 2.001779,26.19704 11.3578322,49.19059 28.169962,69.23082 2.963154,3.53211 10.926009,11.48019 14.405795,14.37907 13.602015,11.33134 28.881988,19.37565 45.435925,23.92029 12.72224,3.49269 27.575922,5.02158 39.585641,4.0745 z"
       id="path311" />
    <path
       style="fill:#000000;stroke-width:0.212815"
       d="m 93.834721,248.13951 c -5.299347,-0.51504 -6.789684,-0.69075 -10.002287,-1.17938 -8.784704,-1.33607 -18.384901,-3.77214 -26.069795,-6.61522 -17.63745,-6.52515 -34.246491,-17.20432 -47.766763,-30.7127 -19.2374597,-19.22052 -31.946701,-43.98882 -36.510751,-71.15364 -1.251082,-7.44633 -1.617813,-11.66481 -1.745572,-20.07915 -0.167045,-11.00184 0.464322,-18.39734 2.403115,-28.14881 C -21.739669,69.540178 -12.529794,50.04216 1.1330461,33.109882 5.7367458,27.404547 13.237667,19.773557 18.817563,15.118708 29.927729,5.8504146 41.777779,-1.235627 54.59932,-6.277908 c 10.794982,-4.245306 20.540787,-6.741946 32.4373,-8.309657 5.578756,-0.735164 6.193835,-0.774198 13.72797,-0.871191 8.65941,-0.11148 13.4256,0.146653 20.62963,1.117277 19.70768,2.655289 38.23263,9.5203324 54.69336,20.268472 11.23201,7.334009 23.54556,18.672521 31.8316,29.311036 13.70539,17.596445 23.23317,40.173282 26.46823,62.718595 1.04396,7.275466 1.26759,10.601696 1.27037,18.895816 0.003,8.07868 -0.20447,11.30469 -1.17552,18.30206 -2.98945,21.54218 -11.70035,42.64053 -24.82188,60.12012 -11.05744,14.72996 -22.98364,25.49446 -38.78676,35.00869 -5.71968,3.4435 -15.72008,8.11421 -22.81516,10.6558 -10.1004,3.61823 -22.25449,6.1822 -33.68501,7.10613 -4.37209,0.35338 -17.26387,0.41256 -20.538729,0.0943 z m 15.325649,-7.64908 c 18.31401,-0.80658 34.19894,-4.9612 50.88743,-13.30936 14.09676,-7.05168 27.45269,-17.55008 37.88346,-29.7783 7.15839,-8.39187 12.92337,-17.0952 17.33879,-26.17618 C 232.62811,135.52713 232.03608,93.756533 213.67138,58.434822 208.61477,48.709157 202.5321,40.279053 193.85782,30.974639 183.4389,19.798893 172.82752,11.99197 158.30179,4.8156424 146.03528,-1.2445409 133.53977,-5.0515378 120.57775,-6.6777119 114.5897,-7.4289513 110.57454,-7.644121 102.54403,-7.644121 c -6.614677,0 -7.622572,0.050628 -12.682647,0.6370743 -6.417699,0.743794 -8.003169,1.0044033 -13.14134,2.160098 C 53.110722,0.4633419 33.052887,11.443794 16.141755,28.316005 13.733676,30.718541 10.71703,33.915626 9.4380946,35.420637 -2.7125403,49.719143 -10.944146,65.044868 -15.983754,82.751425 c -3.146793,11.056185 -4.457502,20.989195 -4.457669,33.781795 -1.34e-4,10.22705 0.738392,17.53175 2.667003,26.37914 6.652355,30.51726 24.5602334,57.51201 49.960397,75.31145 13.849577,9.70524 29.639212,16.50926 46.459724,20.02026 4.548436,0.94943 12.370057,1.93175 18.487647,2.3219 2.507591,0.15994 7.374692,0.12935 12.027022,-0.0755 z"
       id="path350" />
    <path
       style="fill:#ffffff;stroke-width:0.212815"
       d="M 96.282091,238.66407 C 82.586995,237.30966 75.263802,235.90496 65.969961,232.84982 42.149106,225.01924 22.140767,210.95232 6.7728329,191.23115 -6.7863113,173.83115 -15.369125,152.50825 -17.983298,129.72773 -22.867236,87.167876 -4.2951799,44.253947 30.09674,18.630538 46.692944,6.2656781 65.063922,-1.472355 85.109324,-4.5412941 c 7.314848,-1.1198992 9.339273,-1.2374933 19.366136,-1.1249369 9.85514,0.1106302 12.90857,0.3459295 19.9345,1.5361523 31.45434,5.3285151 60.07888,23.2415707 78.67039,49.2314437 10.86061,15.182516 18.09856,32.584133 21.308,51.22922 2.1208,12.320665 2.11736,28.245515 -0.009,40.526435 -4.29643,24.81622 -15.58877,47.00207 -33.0758,64.98321 -12.33167,12.68013 -25.79854,21.68014 -42.44076,28.36357 -10.57354,4.24625 -20.44617,6.62482 -33.53406,8.07924 -2.91574,0.32403 -16.81236,0.60203 -19.046909,0.38103 z m 15.854689,-1.89537 c 18.4962,-1.59716 32.0465,-5.46415 47.98608,-13.69433 10.11944,-5.22505 17.32616,-10.4747 27.38057,-19.94517 10.56835,-9.95455 17.99907,-20.24322 24.88517,-34.45639 6.70682,-13.84314 10.74637,-29.21134 11.71885,-44.58369 0.29479,-4.65972 0.10027,-15.88615 -0.34216,-19.74793 -2.32603,-20.302745 -8.63455,-38.124578 -19.14999,-54.099728 -2.24554,-3.41146 -5.66616,-8.073347 -7.96367,-10.853547 C 193.44946,35.513005 184.25445,26.322447 180.34388,23.088061 165.94684,11.180459 147.2044,2.188404 128.94914,-1.5695709 119.40295,-3.5347212 115.09074,-3.9185179 102.56012,-3.918248 93.399056,-3.9180522 92.411403,-3.882024 89.259208,-3.4330366 79.100737,-1.9860991 71.803052,-0.29364159 64.040675,2.4155726 59.120446,4.1328269 55.755756,5.5739383 50.207724,8.3402866 41.060412,12.901298 33.475141,17.840233 25.734039,24.27563 22.309857,27.12225 13.894122,35.537537 11.058413,38.95048 c -13.90252,16.73249 -22.842346,36.240719 -26.385731,57.578166 -1.290325,7.770054 -1.381432,9.096924 -1.388165,20.217394 -0.0067,11.07309 0.06926,12.12293 1.49376,20.64301 2.716806,16.24951 8.9381941,31.87321 18.2621689,45.86156 4.9094336,7.36541 8.0451321,11.13231 15.3363851,18.42357 7.486943,7.48697 11.541199,10.83035 19.274829,15.89521 17.164137,11.24106 36.616499,17.7455 57.672766,19.28445 4.169058,0.30472 12.803914,0.26098 16.812354,-0.0851 z"
       id="path162" />
    <path
       style="fill:#ffffff;stroke-width:0.212815"
       d="M 10.588479,192.28629 C 7.1271629,188.07118 2.2539005,181.05393 -0.34199271,176.54694 -16.0786,149.22511 -20.41235,116.99675 -12.475686,86.313542 -7.3439312,66.474131 2.2778612,49.103333 16.51068,33.982729 c 0.980402,-1.041558 1.827461,-1.848837 1.882349,-1.793949 0.05489,0.05488 -0.868151,1.146487 -2.051199,2.42578 -14.3760237,15.545601 -24.539225,34.377568 -28.991895,53.720721 -1.428949,6.207596 -2.106197,10.522707 -2.840363,18.097479 -0.507246,5.23349 -0.496147,16.46065 0.02103,21.27323 0.727779,6.77235 1.976128,13.74941 3.5228,19.68905 4.0537132,15.56732 12.15709362,31.55614 22.412592,44.22235 0.930167,1.14882 1.641454,2.13852 1.580637,2.19935 -0.06081,0.0608 -0.716981,-0.62788 -1.458148,-1.53045 z"
       id="path201" />
    <path
       style="fill:#ffffff;stroke-width:0.212815"
       d="M 10.588479,192.28734 C -0.5010999,178.79166 -8.6030198,162.64134 -12.788,145.68883 c -2.534696,-10.26754 -3.484783,-18.21701 -3.484563,-29.15561 1.43e-4,-7.0591 0.264827,-10.96608 1.1606,-17.131577 3.225827,-22.20291 12.4483653,-42.956083 26.532993,-59.706314 2.506951,-2.981404 6.584686,-7.400861 6.937709,-7.519101 0.275497,-0.09227 -0.182394,0.455891 -2.201358,2.635359 -8.7977816,9.497192 -16.58338686,21.231211 -21.8165567,32.880675 -6.1461913,13.681924 -9.3394423,27.580696 -10.1149653,44.025868 -0.448757,9.51602 0.22797,18.39337 2.159704,28.33111 3.56335,18.33154 11.819686,36.1032 23.762014,51.14744 1.099916,1.38559 1.952287,2.56683 1.89416,2.62496 -0.05813,0.0581 -0.712091,-0.63231 -1.453258,-1.5343 z"
       id="path240" />
    <path
       style="fill:#ffffff;stroke-width:0.212815"
       d="m 94.153946,238.35019 c -0.819338,-0.0981 -2.782551,-0.33181 -4.362701,-0.5194 C 74.992689,236.07424 62.8687,232.50668 49.675687,226.02656 32.290681,217.48742 17.717611,205.43838 5.8990968,189.83198 1.4211827,183.91889 -2.1372303,178.14296 -5.6347467,171.11052 -22.651307,136.89541 -22.93711,97.389862 -6.4144923,63.329561 -0.13786403,50.390706 7.2570046,39.963448 17.210976,30.01607 23.258626,23.972428 29.090651,19.236333 36.481178,14.367042 50.008927,5.454209 65.640637,-0.90188956 80.910826,-3.6987497 c 9.333269,-1.7094649 9.350459,-1.710817 21.755704,-1.710817 12.14428,0 13.42806,0.074922 20.3238,1.1861086 31.2545,5.03638602 59.19399,21.8457781 78.22097,47.0605271 14.08161,18.661086 22.75825,41.698155 24.35027,64.651531 0.27908,4.02363 0.27794,14.28913 -0.003,18.26218 -1.64062,23.28353 -10.72348,46.90419 -25.15047,65.40573 -6.62728,8.49898 -15.3816,17.14048 -23.68306,23.37777 -14.16516,10.64299 -32.38849,18.67384 -49.75003,21.92432 -5.27914,0.98838 -10.9514,1.69966 -15.26484,1.91408 -4.77463,0.23738 -15.501695,0.22365 -17.557206,-0.0225 z m 22.045514,-1.86187 c 16.1347,-1.91662 27.21319,-5.11554 40.96904,-11.82974 11.1702,-5.45216 18.26244,-10.32131 28.07012,-19.27148 9.75455,-8.90172 16.49897,-17.20331 22.55086,-27.75749 8.85931,-15.45026 13.78958,-30.3214 15.98679,-48.2211 0.45897,-3.7389 0.6495,-16.37344 0.32607,-21.62191 -0.70525,-11.444739 -3.93679,-25.422163 -8.53588,-36.920428 -2.74384,-6.859884 -7.72192,-16.176934 -11.87252,-22.220819 -2.55444,-3.719621 -6.2833,-8.623197 -8.28267,-10.892018 C 192.7535,34.7374 183.46676,25.541407 180.97764,23.460732 163.03042,8.4585977 139.42763,-1.4307969 116.28667,-3.6443143 c -1.78875,-0.1711007 -6.67795,-0.2665624 -13.83295,-0.270092 -10.501303,-0.00519 -11.22393,0.019394 -14.152177,0.481076 C 76.449736,-1.564684 68.132824,0.57379221 59.52909,3.9647477 55.700823,5.4735659 48.135693,9.15274 43.823283,11.602999 38.041627,14.888065 32.626641,18.582784 27.010928,23.074292 23.539936,25.85043 12.457062,36.934577 9.7416272,40.34558 -2.7759741,56.069601 -10.850777,73.311613 -14.682081,92.497174 c -1.778852,8.907746 -2.142546,13.020346 -2.144422,24.248866 -0.0016,8.99042 0.177636,12.18062 0.973945,17.34439 2.056185,13.33364 5.245256,23.75463 10.7188024,35.02605 2.692908,5.54538 4.91720449,9.41777 8.4242354,14.66618 4.8878145,7.31477 7.6533772,10.59301 15.5617172,18.44653 7.369638,7.31854 10.694027,10.08335 17.735388,14.75021 5.078093,3.36558 8.21639,5.16763 13.726544,7.88191 13.364495,6.58326 26.876184,10.35777 42.656913,11.91628 4.596545,0.45397 18.420938,0.2818 23.228418,-0.28927 z"
       id="path279" />
  </g>
</svg>
