<?xml version="1.0" encoding="UTF-8" standalone="no"?>
<svg
   width="16.6667in"
   height="16.6667in"
   viewBox="0 0 1200 1200"
   version="1.1"
   id="svg17"
   sodipodi:docname="logo-dark.svg"
   inkscape:version="1.1.2 (b8e25be833, 2022-02-05)"
   xmlns:inkscape="http://www.inkscape.org/namespaces/inkscape"
   xmlns:sodipodi="http://sodipodi.sourceforge.net/DTD/sodipodi-0.dtd"
   xmlns="http://www.w3.org/2000/svg"
   xmlns:svg="http://www.w3.org/2000/svg">
  <defs
     id="defs21" />
  <sodipodi:namedview
     id="namedview19"
     pagecolor="#ffffff"
     bordercolor="#666666"
     borderopacity="1.0"
     inkscape:pageshadow="2"
     inkscape:pageopacity="0.0"
     inkscape:pagecheckerboard="0"
     inkscape:document-units="in"
     showgrid="false"
     inkscape:zoom="1.2432572"
     inkscape:cx="799.11059"
     inkscape:cy="839.32753"
     inkscape:window-width="2560"
     inkscape:window-height="1506"
     inkscape:window-x="-11"
     inkscape:window-y="-11"
     inkscape:window-maximized="1"
     inkscape:current-layer="svg17" />
  <path
     id="Selection"
     fill="none"
     stroke="black"
     stroke-width="1"
     d="M 577.00,225.21            C 577.00,225.21 616.00,225.21 616.00,225.21              616.00,225.21 626.00,225.91 626.00,225.91              653.69,227.81 680.31,232.62 707.00,240.29              748.25,252.15 794.35,275.23 828.00,301.80              860.79,327.70 888.87,355.92 911.92,391.00              981.55,496.97 995.53,629.89 945.57,747.00              928.21,787.71 908.28,817.58 879.42,851.00              853.58,880.93 814.87,910.83 780.00,929.69              735.13,953.96 689.62,967.75 639.00,973.16              639.00,973.16 615.00,975.00 615.00,975.00              615.00,975.00 583.00,975.00 583.00,975.00              583.00,975.00 573.00,974.09 573.00,974.09              545.32,972.19 518.68,967.03 492.00,959.42              460.57,950.45 425.38,934.13 398.00,916.34              353.22,887.25 317.05,852.55 287.35,808.00              218.09,704.10 205.28,567.89 254.43,453.00              294.71,358.83 372.61,283.39 469.00,248.05              492.23,239.53 516.53,233.05 541.00,229.27              541.00,229.27 566.00,226.17 566.00,226.17              566.00,226.17 577.00,225.21 577.00,225.21 Z            M 576.00,249.14            C 576.00,249.14 547.00,252.44 547.00,252.44              519.38,256.88 494.00,263.89 468.00,274.20              378.61,309.64 305.31,385.17 271.42,475.00              259.81,505.79 252.21,538.17 249.91,571.00              249.91,571.00 249.00,583.00 249.00,583.00              249.00,583.00 249.00,618.00 249.00,618.00              249.00,618.00 249.91,629.00 249.91,629.00              251.48,651.43 255.55,673.33 261.58,695.00              282.35,769.73 328.48,836.80 391.00,882.85              420.54,904.61 453.19,921.73 488.00,933.33              514.55,942.18 542.08,948.14 570.00,950.09              570.00,950.09 580.00,951.00 580.00,951.00              580.00,951.00 601.00,951.68 601.00,951.68              601.00,951.68 609.00,951.00 609.00,951.00              665.98,950.34 719.99,934.74 770.00,907.69              803.70,889.47 839.03,860.92 864.00,832.00              884.41,808.35 902.65,782.22 916.22,754.00              964.67,653.20 963.03,536.39 911.74,437.00              892.81,400.30 867.73,369.47 838.00,341.04              811.29,315.50 776.62,293.86 743.00,278.70              707.56,262.71 668.78,252.62 630.00,249.91              630.00,249.91 618.00,249.14 618.00,249.14              618.00,249.14 576.00,249.14 576.00,249.14 Z            M 579.00,252.21            C 579.00,252.21 612.00,252.21 612.00,252.21              612.00,252.21 624.00,252.91 624.00,252.91              652.55,254.87 680.78,259.93 708.00,269.00              754.16,284.38 796.83,308.46 833.00,341.17              861.79,367.21 887.17,398.82 905.69,433.00              976.41,563.46 957.92,725.39 857.08,835.00              831.49,862.82 801.52,887.42 768.00,905.22              727.58,926.68 690.47,939.35 645.00,945.28              645.00,945.28 625.00,947.17 625.00,947.17              625.00,947.17 616.00,948.00 616.00,948.00              616.00,948.00 585.00,948.00 585.00,948.00              585.00,948.00 575.00,947.09 575.00,947.09              546.01,945.10 517.60,939.53 490.00,930.33              449.28,916.76 409.92,895.17 377.00,867.56              343.87,839.77 314.92,805.10 294.31,767.00              242.71,671.60 237.68,557.22 281.86,458.00              322.55,366.60 400.11,298.46 495.00,267.74              513.81,261.66 538.33,256.73 558.00,254.28              558.00,254.28 579.00,252.21 579.00,252.21 Z            M 582.00,259.14            C 582.00,259.14 570.00,260.17 570.00,260.17              570.00,260.17 552.00,262.28 552.00,262.28              535.53,264.50 512.80,269.63 497.00,274.74              406.12,304.16 330.29,369.93 290.31,457.00              242.97,560.08 249.28,682.37 309.42,779.00              332.38,815.87 361.26,847.48 396.00,873.53              425.27,895.47 457.33,912.11 492.00,923.67              519.43,932.81 547.21,938.11 576.00,940.09              576.00,940.09 586.00,941.00 586.00,941.00              586.00,941.00 611.00,941.00 611.00,941.00              611.00,941.00 623.00,940.09 623.00,940.09              670.42,936.84 712.48,925.01 755.00,903.75              791.98,885.26 817.95,864.09 847.00,835.00              870.57,811.39 890.36,781.78 905.25,752.00              958.76,644.96 951.97,518.09 887.95,417.00              869.13,387.29 844.91,360.01 818.00,337.44              785.07,309.81 746.68,289.22 706.00,275.67              678.99,266.67 651.32,261.85 623.00,259.91              623.00,259.91 612.00,259.14 612.00,259.14              612.00,259.14 582.00,259.14 582.00,259.14 Z            M 579.00,262.21            C 579.00,262.21 612.00,262.21 612.00,262.21              612.00,262.21 624.00,262.91 624.00,262.91              648.62,264.60 672.23,268.80 696.00,275.58              730.06,285.30 765.00,302.45 794.00,322.72              824.00,343.69 850.56,369.52 872.27,399.00              947.12,500.68 958.72,634.28 904.68,748.00              891.53,775.67 873.36,802.13 853.05,825.00              828.18,853.00 798.02,877.83 765.00,895.69              721.10,919.44 675.89,933.66 626.00,937.09              626.00,937.09 616.00,938.00 616.00,938.00              616.00,938.00 585.00,938.00 585.00,938.00              585.00,938.00 575.00,937.09 575.00,937.09              547.47,935.20 520.23,930.07 494.00,921.33              447.33,905.79 406.10,881.55 370.00,848.09              370.00,848.09 360.01,839.00 360.01,839.00              317.71,796.15 286.51,741.46 271.89,683.00              267.13,663.95 262.03,632.43 262.00,613.00              262.00,613.00 262.00,587.00 262.00,587.00              262.00,587.00 262.91,575.00 262.91,575.00              265.40,538.77 273.60,502.50 287.87,469.00              324.07,384.03 393.86,315.00 481.00,283.05              503.37,274.85 526.44,268.92 550.00,265.43              550.00,265.43 568.00,263.17 568.00,263.17              568.00,263.17 579.00,262.21 579.00,262.21 Z            M 525.00,602.00            C 525.00,602.00 502.79,574.00 502.79,574.00              502.79,574.00 453.80,512.00 453.80,512.00              453.80,512.00 439.60,494.00 439.60,494.00              439.60,494.00 431.56,484.99 431.56,484.99              431.56,484.99 424.00,484.00 424.00,484.00              424.00,484.00 381.00,484.00 381.00,484.00              381.00,484.00 381.00,721.00 381.00,721.00              381.00,721.00 446.00,721.00 446.00,721.00              446.00,721.00 446.00,644.00 446.00,644.00              446.00,635.60 445.09,612.72 447.00,606.00              447.00,606.00 471.75,638.00 471.75,638.00              471.75,638.00 517.80,695.00 517.80,695.00              517.80,695.00 531.58,712.00 531.58,712.00              531.58,712.00 539.09,719.98 539.09,719.98              539.09,719.98 547.00,721.00 547.00,721.00              547.00,721.00 591.00,721.00 591.00,721.00              591.00,721.00 591.00,484.00 591.00,484.00              591.00,484.00 534.00,484.00 534.00,484.00              525.36,484.02 525.02,484.36 525.00,493.00              525.00,493.00 525.00,602.00 525.00,602.00 Z            M 789.00,599.00            C 831.05,580.76 831.46,515.37 794.00,492.06              779.51,483.05 765.33,484.00 749.00,484.00              749.00,484.00 688.00,484.00 688.00,484.00              688.00,484.00 637.00,484.00 637.00,484.00              629.51,484.14 630.01,486.26 630.00,493.00              630.00,493.00 630.00,668.00 630.00,668.00              630.00,668.00 630.00,714.00 630.00,714.00              630.14,721.49 632.26,720.99 639.00,721.00              639.00,721.00 742.00,721.00 742.00,721.00              742.00,721.00 753.00,719.96 753.00,719.96              753.00,719.96 763.00,719.96 763.00,719.96              774.59,718.72 789.58,715.21 800.00,710.03              811.43,704.35 820.42,696.54 826.19,685.00              829.28,678.82 830.92,671.90 831.00,665.00              831.21,646.59 830.95,634.47 819.10,619.00              810.66,607.98 800.83,604.50 789.00,599.00 Z            M 696.00,540.00            C 696.00,540.00 736.00,540.00 736.00,540.00              741.78,540.01 747.35,540.02 751.89,544.22              759.15,550.95 758.76,567.46 749.98,572.77              746.06,575.15 738.59,575.94 734.00,576.00              734.00,576.00 696.00,576.00 696.00,576.00              696.00,576.00 696.00,540.00 696.00,540.00 Z            M 696.00,627.00            C 696.00,627.00 745.00,627.00 745.00,627.00              750.19,627.01 754.60,626.91 758.79,630.56              766.42,637.20 768.47,655.61 756.96,662.47              751.23,665.88 743.50,665.00 737.00,665.00              737.00,665.00 696.00,665.00 696.00,665.00              696.00,665.00 696.00,627.00 696.00,627.00 Z" />
  <path
     style="fill:#000000;stroke-width:1.30506"
     d="m 771.2903,1248.7012 c -65.73342,-5.7262 -115.68003,-19.0149 -168.3527,-44.7916 -47.0381,-23.0192 -84.93046,-50.2565 -123.38441,-88.6894 -20.48596,-20.4748 -35.58505,-38.9747 -52.76318,-64.6471 C 361.92538,953.63402 337.69453,840.05072 357.04835,723.65562 382.23301,572.1935 488.81694,439.68297 631.03689,383.0192 c 36.92821,-14.71306 72.21026,-23.60155 120.02499,-30.23748 16.09703,-2.23401 72.60591,-2.21075 93.31177,0.0384 69.9379,7.59697 130.37385,27.65854 188.01855,62.41233 81.2634,48.99344 145.3148,122.98887 181.7487,209.96544 16.5698,39.55631 26.1057,75.33747 32.3261,121.29627 2.8973,21.4062 3.3118,78.81372 0.7302,101.14213 -12.5573,108.61088 -58.6468,202.59281 -135.861,277.03651 -63.6365,61.3532 -147.29997,103.5901 -234.33606,118.303 -32.05117,5.418 -79.64644,7.9958 -105.70984,5.7254 z M 595.75977,888.17017 c 0,-40.87126 0.44983,-74.58939 0.99962,-74.92918 0.54979,-0.3398 7.41534,7.70061 15.25678,17.86755 17.79309,23.0699 92.80696,116.00727 100.45865,124.46181 l 5.66434,6.25867 35.38473,0.40412 35.38472,0.40409 V 803.34211 644.04698 h -42.97375 c -37.32697,0 -43.24323,0.26948 -45.02456,2.05081 -1.81628,1.81628 -2.05413,10.65928 -2.07984,77.32479 -0.0275,71.54551 -0.1407,75.13375 -2.28385,72.44299 -1.24016,-1.55704 -27.02778,-34.15091 -57.30581,-72.43082 -30.27804,-38.2799 -57.1775,-71.65529 -59.77659,-74.16753 l -4.72563,-4.56771 -33.86144,-0.40647 -33.86143,-0.40647 v 159.29749 159.29749 h 44.37203 44.37203 z m 414.35643,73.04967 c 51.2552,-3.07958 85.4821,-23.01653 96.0787,-55.96525 3.5709,-11.10301 3.8849,-38.90153 0.5979,-52.91612 -4.886,-20.83195 -19.0878,-38.0762 -39.5927,-48.07487 l -12.0843,-5.89256 4.2506,-1.76067 c 7.3891,-3.06065 22.3245,-19.06118 27.6019,-29.57025 10.5247,-20.95829 12.1774,-45.66793 4.6784,-69.94682 -5.2742,-17.07585 -20.3456,-35.91344 -34.8958,-43.61589 -17.1792,-9.0942 -11.681,-8.66671 -117.37876,-9.12604 -94.73939,-0.41171 -95.56258,-0.39283 -98.20574,2.25033 -2.65381,2.65381 -2.66552,3.34082 -2.66552,156.37218 0,137.00433 0.22076,154.02184 2.03159,156.60717 l 2.0316,2.9005 73.98813,-0.0428 c 40.69348,-0.0235 82.79729,-0.57206 93.564,-1.21895 z"
     id="path194"
     transform="scale(0.74999851)" />
  <path
     style="fill:#000000;stroke-width:1.30506"
     d="m 929.85506,743.92033 v -23.04288 l 31.6477,0.41029 c 35.47804,0.45995 37.94889,1.04399 43.34044,10.24442 3.7991,6.48319 3.6531,18.56129 -0.3017,24.93728 -5.42729,8.75018 -8.72774,9.50788 -43.69127,10.03049 l -30.99517,0.46328 z"
     id="path233"
     transform="scale(0.74999851)" />
  <path
     style="fill:#000000;stroke-width:1.30506"
     d="m 929.85506,861.41397 v -24.21815 h 35.93106 c 40.63788,0 42.59458,0.3626 48.27468,8.94571 7.7316,11.68326 4.9681,29.08931 -5.6685,35.70337 -4.6615,2.89862 -5.8755,2.99728 -41.6693,3.38641 l -36.86794,0.4008 z"
     id="path272"
     transform="scale(0.74999851)" />
  <path
     style="fill:#000000;stroke-width:0.804339"
     d="m 763.31751,1261.5178 c -51.09983,-4.7403 -89.99437,-13.833 -134.50418,-31.4441 -80.16993,-31.7206 -148.45601,-84.2096 -201.08509,-154.5665 -71.51857,-95.60933 -103.5057,-222.19058 -86.2077,-341.14589 23.41271,-161.00504 126.47347,-295.38093 276.21165,-360.13887 44.02226,-19.03851 86.28782,-29.86122 137.54193,-35.21961 15.29531,-1.59905 19.77877,-1.72568 47.45599,-1.34033 29.5963,0.41207 36.59286,0.82849 57.10805,3.39894 86.18747,10.79883 169.20854,47.02753 236.87804,103.36874 74.3675,61.91786 127.5467,146.10818 151.6363,240.06213 10.3394,40.32532 14.3659,72.75285 14.3819,115.82478 0.016,43.28975 -3.7422,73.88451 -14.1191,114.93638 -24.8379,98.26073 -81.8205,185.40463 -163.5444,250.10903 -47.7286,37.7889 -109.75781,68.1889 -170.13553,83.382 -25.75466,6.4808 -43.76484,9.4741 -74.80351,12.4321 -26.28718,2.5052 -52.24408,2.6205 -76.81435,0.3412 z m 64.3551,-6.7473 c 69.87407,-5.5102 121.01279,-19.5297 180.58139,-49.5055 40.9972,-20.6305 69.5719,-41.2397 109.3431,-78.8624 38.2833,-36.2153 65.9446,-74.2458 91.4098,-125.6758 25.1442,-50.78214 39.8069,-103.7098 45.4926,-164.21446 1.3064,-13.9017 1.3034,-58.06903 -0.01,-72.79266 -7.8303,-88.12352 -38.195,-168.55423 -89.4276,-236.87778 -13.6117,-18.15259 -24.7053,-30.83242 -42.9758,-49.12051 -18.4109,-18.43194 -30.7395,-29.31792 -47.9278,-42.32253 -52.6322,-39.82127 -119.88536,-69.89984 -183.75726,-82.18438 -33.64989,-6.47191 -52.8026,-8.14476 -93.3033,-8.14938 -29.72483,-0.003 -34.44574,0.1807 -47.85816,1.86623 -57.97439,7.2856 -103.30557,20.7426 -152.02003,45.12864 -80.15318,40.12398 -145.75804,101.19259 -190.59025,177.41189 -8.5397,14.51837 -22.69603,43.32004 -28.86071,58.71838 -16.15876,40.36191 -26.04544,80.30638 -31.15599,125.87737 -1.75807,15.67683 -2.46706,62.30265 -1.19958,78.88991 7.56578,99.01242 42.92724,185.91718 106.46915,261.65978 11.19932,13.3497 41.29515,43.3897 54.4471,54.3461 51.40919,42.8271 109.16027,73.2308 171.72633,90.4074 48.08406,13.2007 104.22396,18.9792 149.61501,15.3997 z"
     id="path311"
     transform="scale(0.74999851)" />
  <path
     style="fill:#000000;stroke-width:0.804339"
     d="m 762.91534,1297.7267 c -20.02903,-1.9466 -25.6618,-2.6107 -37.80392,-4.4575 -33.20203,-5.0497 -69.48624,-14.2569 -98.53151,-25.0024 -66.66123,-24.662 -129.43556,-65.0242 -180.5358,-116.0795 -72.70851,-72.6445 -120.74344,-166.25697 -137.99339,-268.92715 -4.7285,-28.1436 -6.11457,-44.08746 -6.59744,-75.88971 -0.63135,-41.58175 1.75492,-69.53326 9.08264,-106.38919 15.56282,-78.27565 50.3718,-151.96895 102.01088,-215.96496 17.39981,-21.56347 45.74975,-50.40501 66.83912,-67.99814 41.99118,-35.02977 86.77877,-61.81166 135.23814,-80.8691 40.79993,-16.04525 77.63447,-25.48137 122.59767,-31.40658 21.08506,-2.77857 23.40977,-2.9261 51.88523,-3.29269 32.72849,-0.42134 50.74245,0.55428 77.97025,4.22278 74.48574,10.03574 144.50129,35.98236 206.71509,76.60525 42.4517,27.71909 88.9911,70.57331 120.3084,110.78187 51.7999,66.50625 87.8104,151.83603 100.0374,237.04666 3.9457,27.49784 4.7909,40.0694 4.8014,71.41726 0.011,30.53359 -0.7728,42.72637 -4.4429,69.17314 -11.2987,81.41925 -44.2218,161.16106 -93.815,227.22566 -41.7919,55.6723 -86.8673,96.357 -146.5956,132.3163 -21.6177,13.0148 -59.41451,30.6679 -86.23053,40.2739 -38.17474,13.6752 -84.11149,23.3658 -127.31344,26.8578 -16.52444,1.3356 -65.24927,1.5593 -77.62669,0.3563 z m 57.92372,-28.9099 c 69.2183,-3.0485 129.25582,-18.751 192.33044,-50.3031 53.2791,-26.652 103.7582,-66.331 143.1816,-112.5479 27.0553,-31.7173 48.8442,-64.6118 65.5324,-98.9336 65.6053,-134.92711 63.3677,-292.80022 -6.0422,-426.2996 -19.1116,-36.75842 -42.1012,-68.62023 -74.8859,-103.78652 -39.3786,-42.23904 -79.4846,-71.74552 -134.385,-98.86865 -46.36162,-22.90463 -93.58875,-37.29328 -142.57903,-43.43945 -22.63201,-2.83933 -37.80743,-3.65257 -68.15897,-3.65257 -25.00034,0 -28.80971,0.19135 -47.9344,2.40784 -24.25587,2.81119 -30.2482,3.79617 -49.66806,8.16415 -89.23208,20.07039 -165.04122,61.57131 -228.95731,125.3403 -9.1014,9.08045 -20.5029,21.16392 -25.33667,26.85215 -45.92366,54.0416 -77.03524,111.9656 -96.08258,178.88802 -11.89339,41.78716 -16.84725,79.32924 -16.84788,127.67922 -5.1e-4,38.65342 2.79077,66.26175 10.08001,99.70068 25.14276,115.34083 92.82608,217.36823 188.8267,284.64173 52.34486,36.6812 112.02222,62.3972 175.59581,75.6671 17.19094,3.5884 46.75297,7.3011 69.87457,8.7757 9.47751,0.6045 27.87286,0.4889 45.45647,-0.2855 z"
     id="path350"
     transform="scale(0.74999851)" />
  <path
     style="fill:#ffffff;stroke-width:0.804339"
     d="m 772.16524,1261.914 c -51.76099,-5.119 -79.4392,-10.4281 -114.56553,-21.9751 C 567.56813,1210.343 491.94606,1157.1767 433.86253,1082.64 382.61537,1016.8762 350.17639,936.28573 340.29605,850.18611 321.83707,689.32997 392.03067,527.13559 522.01588,430.29121 c 62.72581,-46.73333 132.15943,-75.97944 207.92158,-87.57858 27.64667,-4.23269 35.29804,-4.67714 73.19483,-4.25173 37.24778,0.41813 48.78833,1.30745 75.34302,5.80593 118.88254,20.13927 227.06979,87.84216 297.33689,186.0716 41.048,57.38274 68.404,123.15263 80.5342,193.62225 8.0156,46.56628 8.0026,106.75472 -0.033,153.17078 -16.2385,93.7936 -58.9182,177.64564 -125.0109,245.60584 -46.6079,47.9249 -97.5063,81.9407 -160.40604,107.2009 -39.96297,16.0488 -77.27686,25.0387 -126.74289,30.5357 -11.02014,1.2247 -63.54279,2.2754 -71.98833,1.4401 z m 59.92324,-7.1636 c 69.90688,-6.0365 121.12064,-20.6519 181.36472,-51.7581 38.2467,-19.7482 65.4847,-39.5894 103.4856,-75.3833 39.9434,-37.6235 68.028,-76.5098 94.0542,-130.22889 25.3486,-52.32051 40.6162,-110.40507 44.2917,-168.50528 1.1142,-17.61153 0.379,-60.04215 -1.2932,-74.63783 -8.7913,-76.7348 -32.6345,-144.09291 -72.3779,-204.47143 -8.4871,-12.89371 -21.4154,-30.51344 -30.0989,-41.02128 -12.1027,-14.64533 -46.8555,-49.3813 -61.6356,-61.60575 -54.414,-45.00511 -125.25157,-78.99083 -194.24785,-93.1942 -36.0801,-7.42734 -52.37821,-8.87791 -99.73801,-8.87689 -34.62451,7.4e-4 -38.35737,0.13691 -50.27118,1.83387 -38.39422,5.46874 -65.97602,11.86543 -95.31414,22.10498 -18.59614,6.49041 -31.31308,11.93713 -52.28202,22.39262 -34.57252,17.23847 -63.24126,35.90531 -92.49897,60.22807 -12.94179,10.75888 -44.74929,42.56469 -55.46693,55.464 -52.54496,63.24091 -86.33328,136.9728 -99.7256,217.61827 -4.87682,29.36714 -5.22116,34.38207 -5.24661,76.41218 -0.0254,41.85106 0.26177,45.81898 5.64571,78.02086 10.26824,61.41545 33.78215,120.46566 69.02237,173.335 18.55534,27.8378 30.4068,42.0749 57.96429,69.6324 28.29711,28.2972 43.62028,40.9336 72.84975,60.0764 64.87233,42.4859 138.39307,67.0696 217.97581,72.8861 15.75707,1.1517 48.39273,0.9864 63.54276,-0.3218 z"
     id="path162"
     transform="scale(0.74999851)" />
  <path
     style="fill:#ffffff;stroke-width:0.804339"
     d="m 448.28387,1086.6279 c -13.08214,-15.9311 -31.50077,-42.453 -41.31202,-59.4873 -59.47694,-103.2636 -75.85647,-225.07157 -45.85963,-341.03961 19.39561,-74.9836 55.76144,-140.63701 109.55477,-197.78575 3.70546,-3.9366 6.90694,-6.98773 7.11439,-6.78028 0.20745,0.20744 -3.2812,4.33318 -7.75256,9.1683 -54.33458,58.75503 -92.74668,129.93097 -109.57567,203.03895 -5.40075,23.46178 -7.96043,39.77086 -10.73523,68.39991 -1.91715,19.78015 -1.8752,62.2135 0.0795,80.40277 2.75066,25.59629 7.46883,51.96629 13.31452,74.4153 15.32112,58.83713 45.94807,119.26731 84.70901,167.13961 3.51559,4.342 6.20392,8.0826 5.97406,8.3125 -0.22985,0.2298 -2.70985,-2.3731 -5.51111,-5.7844 z"
     id="path201"
     transform="scale(0.74999851)" />
  <path
     style="fill:#ffffff;stroke-width:0.804339"
     d="m 448.28387,1086.6319 c -41.91337,-51.0073 -72.5348,-112.04789 -88.35205,-176.12038 -9.57995,-38.80644 -13.17083,-68.85168 -13.17,-110.19442 5.4e-4,-26.68005 1.00092,-41.44662 4.38652,-64.74927 12.1921,-83.91651 47.04894,-162.3537 100.28218,-225.66166 9.47509,-11.2683 24.887,-27.97176 26.22126,-28.41865 1.04125,-0.34875 -0.68936,1.72305 -8.32009,9.96041 -33.25146,35.8949 -62.67737,80.24395 -82.45628,124.27342 -23.2297,51.71121 -35.29868,104.242 -38.22979,166.39698 -1.69609,35.96607 0.86162,69.51827 8.16266,107.07821 13.46778,69.28455 44.67283,136.45306 89.80919,193.31316 4.15716,5.2369 7.37872,9.7014 7.15903,9.9211 -0.21969,0.2197 -2.69137,-2.3898 -5.49263,-5.7989 z"
     id="path240"
     transform="scale(0.74999851)" />
  <path
     style="fill:#ffffff;stroke-width:0.804339"
     d="m 764.12186,1260.7277 c -3.09671,-0.3708 -10.51673,-1.2541 -16.48895,-1.9631 -55.93155,-6.6389 -101.7545,-20.1226 -151.61786,-44.6144 -65.70711,-32.2739 -120.78643,-77.8136 -165.45483,-136.7984 -16.9244,-22.3487 -30.37352,-44.179 -43.59248,-70.7583 -64.31456,-129.31694 -65.39476,-278.62925 -2.94707,-407.3611 23.72269,-48.90276 51.6718,-88.31287 89.29311,-125.90926 22.85726,-22.84211 44.89956,-40.74231 72.83226,-59.14593 51.1285,-33.6863 110.20898,-57.70935 167.92308,-68.28016 35.27535,-6.46097 35.34032,-6.46608 82.22629,-6.46608 45.89962,0 50.75173,0.28317 76.81435,4.48293 118.12727,19.03516 223.72534,82.56672 295.63834,177.86656 53.2218,70.53009 86.0154,157.59933 92.0325,244.35224 1.0548,15.20741 1.0505,54.00618 -0.01,69.02242 -6.2008,88.00074 -40.5297,177.27568 -95.0569,247.20278 -25.048,32.1221 -58.1352,64.7829 -89.5108,88.3569 -53.5376,40.2255 -122.41318,70.5783 -188.0316,82.8636 -19.95267,3.7356 -41.39113,6.4239 -57.69388,7.2343 -18.04584,0.8972 -58.58909,0.8453 -66.35795,-0.085 z m 83.32162,-7.037 c 60.98157,-7.2439 102.85301,-19.3343 154.84362,-44.7108 42.2181,-20.6066 69.0234,-39.0097 106.0918,-72.8371 36.8676,-33.6443 62.3583,-65.0204 85.2316,-104.9102 33.484,-58.39469 52.1181,-114.60058 60.4225,-182.253 1.7347,-14.13127 2.4548,-61.88387 1.2324,-81.72061 -2.6655,-43.25569 -14.8792,-96.08375 -32.2616,-139.54176 -10.3704,-25.92712 -29.1852,-61.14117 -44.8725,-83.9842 -9.6546,-14.05841 -23.7479,-32.59161 -31.3046,-41.16668 -10.0451,-11.39881 -45.1446,-46.15532 -54.5523,-54.01929 -67.832,-56.70098 -157.0394,-94.07822 -244.50131,-102.44427 -6.76063,-0.64668 -25.23948,-1.00748 -52.28202,-1.02082 -39.68995,-0.0196 -42.42114,0.0733 -53.48853,1.81824 -44.79423,7.0626 -76.22823,15.14503 -108.74628,27.96124 -14.46904,5.70262 -43.06166,19.60816 -59.36053,28.86898 -21.85193,12.416 -42.31802,26.38029 -63.54276,43.35607 -13.11871,10.49249 -55.00674,52.38533 -65.2698,65.27731 -47.31062,59.42937 -77.82956,124.59603 -92.31008,197.10839 -6.72322,33.66708 -8.09781,49.21074 -8.1049,91.64924 -0.006,33.97957 0.67138,46.037 3.68105,65.55361 7.77141,50.39487 19.82459,89.78128 40.51201,132.38194 10.17792,20.95891 18.58471,35.59471 31.83963,55.43121 18.47363,27.6464 28.92615,40.0366 58.81594,69.7192 27.85375,27.6606 40.41837,38.1103 67.03139,55.7488 19.19279,12.7203 31.05407,19.5312 51.87985,29.7899 50.51148,24.8816 101.57928,39.1475 161.22298,45.0379 17.37277,1.7158 69.62243,1.0651 87.79244,-1.0933 z"
     id="path279"
     transform="scale(0.74999851)" />
  <path
     style="fill:#ffffff;stroke-width:0.804339"
     d=""
     id="path318"
     transform="scale(0.74999851)" />
  <path
     style="fill:#ffffff;stroke-width:0.804339"
     d=""
     id="path357"
     transform="scale(0.74999851)" />
  <path
     style="fill:#ffffff;stroke-width:0.804339"
     d=""
     id="path396"
     transform="scale(0.74999851)" />
  <path
     style="fill:#ffffff;stroke-width:0.804339"
     d=""
     id="path435"
     transform="scale(0.74999851)" />
</svg>
