<?xml version="1.0" encoding="UTF-8" standalone="no"?>
<!DOCTYPE svg PUBLIC "-//W3C//DTD SVG 20010904//EN"
              "http://www.w3.org/TR/2001/REC-SVG-20010904/DTD/svg10.dtd">

<svg xmlns="http://www.w3.org/2000/svg"
     width="16.6667in" height="16.6667in"
     viewBox="0 0 1200 1200">
  <path id="Selection"
        fill="none" stroke="black" stroke-width="1"
        d="M 0.00,0.00
           C 0.00,0.00 1200.00,0.00 1200.00,0.00
             1200.00,0.00 1200.00,1200.00 1200.00,1200.00
             1200.00,1200.00 0.00,1200.00 0.00,1200.00
             0.00,1200.00 0.00,0.00 0.00,0.00 Z
           M 593.00,225.28
           C 586.79,226.18 584.09,225.97 578.00,226.00
             578.00,226.00 562.00,227.17 562.00,227.17
             537.66,229.53 513.40,234.67 490.00,241.72
             391.86,271.28 308.17,342.87 263.26,435.00
             248.46,465.35 237.57,498.79 231.58,532.00
             229.11,545.66 226.07,565.32 226.00,579.00
             226.00,579.00 225.00,602.00 225.00,602.00
             225.00,602.00 225.96,612.00 225.96,612.00
             225.96,612.00 225.96,623.00 225.96,623.00
             226.17,637.19 229.96,660.78 232.80,675.00
             244.35,732.77 269.23,785.57 305.42,832.00
             325.99,858.39 352.87,883.99 380.00,903.58
             410.65,925.70 443.13,942.71 479.00,954.67
             507.83,964.28 536.63,970.87 567.00,973.09
             567.00,973.09 577.00,974.00 577.00,974.00
             577.00,974.00 605.00,975.00 605.00,975.00
             605.00,975.00 619.00,974.00 619.00,974.00
             647.02,973.87 684.13,966.36 711.00,958.12
             828.33,922.09 919.55,830.50 957.26,714.00
             965.29,689.17 971.19,660.01 973.09,634.00
             973.09,634.00 974.00,624.00 974.00,624.00
             974.00,624.00 975.00,596.00 975.00,596.00
             975.00,596.00 974.00,577.00 974.00,577.00
             974.00,577.00 973.09,567.00 973.09,567.00
             970.93,537.40 964.56,508.07 955.00,480.00
             924.04,389.02 861.68,315.11 777.00,269.31
             758.39,259.24 738.95,251.56 719.00,244.66
             691.04,234.99 661.49,228.97 632.00,226.91
             632.00,226.91 620.00,226.00 620.00,226.00
             620.00,226.00 593.00,225.28 593.00,225.28 Z
           M 579.00,252.21
           C 579.00,252.21 612.00,252.21 612.00,252.21
             612.00,252.21 624.00,252.91 624.00,252.91
             652.55,254.87 680.78,259.93 708.00,269.00
             754.16,284.38 796.83,308.46 833.00,341.17
             861.79,367.21 887.17,398.82 905.69,433.00
             976.41,563.46 957.92,725.39 857.08,835.00
             831.49,862.82 801.52,887.42 768.00,905.22
             727.58,926.68 690.47,939.35 645.00,945.28
             645.00,945.28 625.00,947.17 625.00,947.17
             625.00,947.17 616.00,948.00 616.00,948.00
             616.00,948.00 585.00,948.00 585.00,948.00
             585.00,948.00 575.00,947.09 575.00,947.09
             546.01,945.10 517.60,939.53 490.00,930.33
             449.28,916.76 409.92,895.17 377.00,867.56
             343.87,839.77 314.92,805.10 294.31,767.00
             242.71,671.60 237.68,557.22 281.86,458.00
             322.55,366.60 400.11,298.46 495.00,267.74
             513.81,261.66 538.33,256.73 558.00,254.28
             558.00,254.28 579.00,252.21 579.00,252.21 Z
           M 582.00,259.14
           C 582.00,259.14 570.00,260.17 570.00,260.17
             570.00,260.17 552.00,262.28 552.00,262.28
             535.53,264.50 512.80,269.63 497.00,274.74
             406.12,304.16 330.29,369.93 290.31,457.00
             242.97,560.08 249.28,682.37 309.42,779.00
             332.38,815.87 361.26,847.48 396.00,873.53
             425.27,895.47 457.33,912.11 492.00,923.67
             519.43,932.81 547.21,938.11 576.00,940.09
             576.00,940.09 586.00,941.00 586.00,941.00
             586.00,941.00 611.00,941.00 611.00,941.00
             611.00,941.00 623.00,940.09 623.00,940.09
             670.42,936.84 712.48,925.01 755.00,903.75
             791.98,885.26 817.95,864.09 847.00,835.00
             870.57,811.39 890.36,781.78 905.25,752.00
             958.76,644.96 951.97,518.09 887.95,417.00
             869.13,387.29 844.91,360.01 818.00,337.44
             785.07,309.81 746.68,289.22 706.00,275.67
             678.99,266.67 651.32,261.85 623.00,259.91
             623.00,259.91 612.00,259.14 612.00,259.14
             612.00,259.14 582.00,259.14 582.00,259.14 Z
           M 579.00,262.21
           C 579.00,262.21 612.00,262.21 612.00,262.21
             612.00,262.21 624.00,262.91 624.00,262.91
             648.62,264.60 672.23,268.80 696.00,275.58
             730.06,285.30 765.00,302.45 794.00,322.72
             824.00,343.69 850.56,369.52 872.27,399.00
             947.12,500.68 958.72,634.28 904.68,748.00
             891.53,775.67 873.36,802.13 853.05,825.00
             828.18,853.00 798.02,877.83 765.00,895.69
             721.10,919.44 675.89,933.66 626.00,937.09
             626.00,937.09 616.00,938.00 616.00,938.00
             616.00,938.00 585.00,938.00 585.00,938.00
             585.00,938.00 575.00,937.09 575.00,937.09
             547.47,935.20 520.23,930.07 494.00,921.33
             447.33,905.79 406.10,881.55 370.00,848.09
             370.00,848.09 360.01,839.00 360.01,839.00
             317.71,796.15 286.51,741.46 271.89,683.00
             267.13,663.95 262.03,632.43 262.00,613.00
             262.00,613.00 262.00,587.00 262.00,587.00
             262.00,587.00 262.91,575.00 262.91,575.00
             265.40,538.77 273.60,502.50 287.87,469.00
             324.07,384.03 393.86,315.00 481.00,283.05
             503.37,274.85 526.44,268.92 550.00,265.43
             550.00,265.43 568.00,263.17 568.00,263.17
             568.00,263.17 579.00,262.21 579.00,262.21 Z
           M 525.00,602.00
           C 525.00,602.00 502.79,574.00 502.79,574.00
             502.79,574.00 453.80,512.00 453.80,512.00
             453.80,512.00 439.60,494.00 439.60,494.00
             439.60,494.00 431.56,484.99 431.56,484.99
             431.56,484.99 424.00,484.00 424.00,484.00
             424.00,484.00 381.00,484.00 381.00,484.00
             381.00,484.00 381.00,721.00 381.00,721.00
             381.00,721.00 446.00,721.00 446.00,721.00
             446.00,721.00 446.00,644.00 446.00,644.00
             446.00,635.60 445.09,612.72 447.00,606.00
             447.00,606.00 471.75,638.00 471.75,638.00
             471.75,638.00 517.80,695.00 517.80,695.00
             517.80,695.00 531.58,712.00 531.58,712.00
             531.58,712.00 539.09,719.98 539.09,719.98
             539.09,719.98 547.00,721.00 547.00,721.00
             547.00,721.00 591.00,721.00 591.00,721.00
             591.00,721.00 591.00,484.00 591.00,484.00
             591.00,484.00 534.00,484.00 534.00,484.00
             525.36,484.02 525.02,484.36 525.00,493.00
             525.00,493.00 525.00,602.00 525.00,602.00 Z
           M 789.00,599.00
           C 831.05,580.76 831.46,515.37 794.00,492.06
             779.51,483.05 765.33,484.00 749.00,484.00
             749.00,484.00 688.00,484.00 688.00,484.00
             688.00,484.00 637.00,484.00 637.00,484.00
             629.51,484.14 630.01,486.26 630.00,493.00
             630.00,493.00 630.00,668.00 630.00,668.00
             630.00,668.00 630.00,714.00 630.00,714.00
             630.14,721.49 632.26,720.99 639.00,721.00
             639.00,721.00 742.00,721.00 742.00,721.00
             742.00,721.00 753.00,719.96 753.00,719.96
             753.00,719.96 763.00,719.96 763.00,719.96
             774.59,718.72 789.58,715.21 800.00,710.03
             811.43,704.35 820.42,696.54 826.19,685.00
             829.28,678.82 830.92,671.90 831.00,665.00
             831.21,646.59 830.95,634.47 819.10,619.00
             810.66,607.98 800.83,604.50 789.00,599.00 Z
           M 696.00,540.00
           C 696.00,540.00 736.00,540.00 736.00,540.00
             741.78,540.01 747.35,540.02 751.89,544.22
             759.15,550.95 758.76,567.46 749.98,572.77
             746.06,575.15 738.59,575.94 734.00,576.00
             734.00,576.00 696.00,576.00 696.00,576.00
             696.00,576.00 696.00,540.00 696.00,540.00 Z
           M 696.00,627.00
           C 696.00,627.00 745.00,627.00 745.00,627.00
             750.19,627.01 754.60,626.91 758.79,630.56
             766.42,637.20 768.47,655.61 756.96,662.47
             751.23,665.88 743.50,665.00 737.00,665.00
             737.00,665.00 696.00,665.00 696.00,665.00
             696.00,665.00 696.00,627.00 696.00,627.00 Z" />
</svg>
